<svg xmlns="http://www.w3.org/2000/svg" viewBox="-1 0 49 48" width="512" height="512">
  <g aria-label="leafs" class="text-brand-blue">
    <path d="M32.8389 4.61032L37.5596 9.33106L42.2113 4.67933L37.5389 0L32.8389 4.61032Z" fill="#229570"></path>
    <path d="M45.6207 14.1622C46.4282 12.775 46.8906 11.0737 46.8906 9.35175L42.2803 14.0518L44.2231 15.9946C44.758 15.4425 45.2307 14.8317 45.6207 14.1622Z" fill="#80C49F"></path>
    <path d="M28.0077 14.1622V18.883L32.8389 14.0518L28.0077 9.33105V9.44148V14.1622Z" fill="#80C49F"></path>
    <path d="M37.5389 0C35.8169 0 34.1156 0.462412 32.7284 1.26991C32.0589 1.65985 31.4481 2.13262 30.896 2.6675L32.8388 4.61032L37.5389 0Z" fill="#168563"></path>
    <path d="M37.5596 9.33105L42.2803 14.0518L46.8906 9.35175L42.2113 4.67932L37.5596 9.33105Z" fill="#4BAE83"></path>
    <path d="M32.8389 14.0518L28.0077 18.883H37.4492H37.5596L32.8389 14.0518Z" fill="#A4D2B3"></path>
    <path d="M37.6631 18.883C39.3022 18.845 40.8379 18.3792 42.1699 17.6096C42.9291 17.1679 43.6158 16.6192 44.2231 15.9946L42.2803 14.0518L37.5596 18.883H37.6631Z" fill="#A4D2B3"></path>
    <path d="M28.0077 9.3311L32.8389 14.0518L37.5596 9.3311L32.8389 4.61035L28.0077 9.3311Z" fill="#4BAE83"></path>
    <path d="M29.281 4.72073C28.5081 6.05275 28.0456 7.58492 28.0077 9.22752V9.33104L32.8389 4.6103L30.896 2.66748C30.268 3.27483 29.7193 3.96154 29.281 4.72073Z" fill="#229570"></path>
    <path d="M37.5596 18.883L42.2804 14.0518L37.5596 9.33105L32.8389 14.0518L37.5596 18.883Z" fill="#80C49F"></path>
    <path d="M37.5388 0L42.2112 4.67933L46.8906 0H37.5388Z" fill="#168563"></path>
    <path d="M46.8906 9.35176V4.72074V0L42.2113 4.67933L46.8906 9.35176Z" fill="#259671"></path>
    <path d="M9.25924 0L4.5868 4.67933L-0.0925293 0H9.25924Z" fill="#168563"></path>
    <path d="M-0.0925293 9.35176V4.72074V0L4.5868 4.67933L-0.0925293 9.35176Z" fill="#259671"></path>
    <path d="M13.9558 4.61032L9.23852 9.33106L4.58679 4.67933L9.25922 0L13.9558 4.61032Z" fill="#229570"></path>
    <path d="M1.17738 14.1622C0.369883 12.775 -0.0925293 11.0737 -0.0925293 9.35175L4.51779 14.0518L2.57497 15.9946C2.04009 15.4425 1.56732 14.8317 1.17738 14.1622Z" fill="#80C49F"></path>
    <path d="M9.25928 0C10.9812 0 12.6825 0.462412 14.0697 1.26991C14.7392 1.65985 15.35 2.13262 15.9021 2.6675L13.9593 4.61032L9.25928 0Z" fill="#168563"></path>
    <path d="M9.23853 9.33105L4.51779 14.0518L-0.0925293 9.35175L4.5868 4.67932L9.23853 9.33105Z" fill="#4BAE83"></path>
    <path d="M9.13511 18.883C7.49596 18.845 5.96034 18.3792 4.62832 17.6096C3.86914 17.1679 3.18242 16.6192 2.57507 15.9946L4.51789 14.0518L9.23864 18.883H9.13511Z" fill="#A4D2B3"></path>
    <path d="M18.7904 9.3311L13.9558 14.0518L9.23853 9.3311L13.9558 4.61035L18.7904 9.3311Z" fill="#4BAE83"></path>
    <path d="M17.5172 4.72073C18.2901 6.05275 18.7526 7.58492 18.7905 9.22752V9.33104L13.9594 4.6103L15.9022 2.66748C16.5302 3.27483 17.0789 3.96154 17.5172 4.72073Z" fill="#229570"></path>
    <path d="M9.23857 18.883L4.51782 14.0518L9.23857 9.33105L13.9559 14.0518L9.23857 18.883Z" fill="#80C49F"></path>
    <path d="M18.7904 14.1622V18.883L13.9558 14.0518L18.7904 9.33105V9.44148V14.1622Z" fill="#80C49F"></path>
    <path d="M13.9558 14.0518L18.7904 18.883H9.34895H9.23853L13.9558 14.0518Z" fill="#A4D2B3"></path>
    <path d="M28.0077 32.8278V28.1071L32.8389 32.9382L28.0077 37.659V37.5485V32.8278Z" fill="#80C49F"></path>
    <path d="M32.8389 32.9382L28.0077 28.1071H37.4492H37.5596L32.8389 32.9382Z" fill="#A4D2B3"></path>
    <path d="M37.6631 28.1071C39.3022 28.145 40.8379 28.6109 42.1699 29.3804C42.9291 29.8221 43.6158 30.3708 44.2231 30.9954L42.2803 32.9382L37.5596 28.1071H37.6631Z" fill="#A4D2B3"></path>
    <path d="M28.0077 37.659L32.8389 32.9382L37.5596 37.659L32.8389 42.3797L28.0077 37.659Z" fill="#4BAE83"></path>
    <path d="M29.281 42.2693C28.5081 40.9372 28.0456 39.4051 28.0077 37.7625V37.6589L32.8389 42.3797L30.896 44.3225C30.268 43.7152 29.7193 43.0284 29.281 42.2693Z" fill="#229570"></path>
    <path d="M37.5596 28.1071L42.2804 32.9382L37.5596 37.659L32.8389 32.9382L37.5596 28.1071Z" fill="#80C49F"></path>
    <path d="M32.8389 42.3797L37.5596 37.6589L42.2113 42.3107L37.5389 46.99L32.8389 42.3797Z" fill="#229570"></path>
    <path d="M45.6207 32.8278C46.4282 34.2151 46.8906 35.9163 46.8906 37.6383L42.2803 32.9382L44.2231 30.9954C44.758 31.5476 45.2307 32.1584 45.6207 32.8278Z" fill="#80C49F"></path>
    <path d="M37.5389 46.99C35.8169 46.99 34.1156 46.5276 32.7284 45.7201C32.0589 45.3302 31.4481 44.8574 30.896 44.3225L32.8388 42.3797L37.5389 46.99Z" fill="#168563"></path>
    <path d="M37.5596 37.659L42.2803 32.9382L46.8906 37.6383L42.2113 42.3107L37.5596 37.659Z" fill="#4BAE83"></path>
    <path d="M37.5388 46.99L42.2112 42.3107L46.8906 46.99H37.5388Z" fill="#168563"></path>
    <path d="M46.8906 37.6382V42.2693V46.99L42.2113 42.3107L46.8906 37.6382Z" fill="#259671"></path>
    <path d="M18.7904 32.8278V28.1071L13.9558 32.9382L18.7904 37.659V37.5485V32.8278Z" fill="#80C49F"></path>
    <path d="M13.9558 32.9382L18.7904 28.1071H9.34895H9.23853L13.9558 32.9382Z" fill="#A4D2B3"></path>
    <path d="M9.13511 28.1071C7.49596 28.145 5.96034 28.6109 4.62832 29.3804C3.86914 29.8221 3.18242 30.3708 2.57507 30.9954L4.51789 32.9382L9.23864 28.1071H9.13511Z" fill="#A4D2B3"></path>
    <path d="M18.7904 37.659L13.9558 32.9382L9.23853 37.659L13.9558 42.3797L18.7904 37.659Z" fill="#4BAE83"></path>
    <path d="M17.5172 42.2693C18.2901 40.9372 18.7526 39.4051 18.7905 37.7625V37.6589L13.9594 42.3797L15.9022 44.3225C16.5302 43.7152 17.0789 43.0284 17.5172 42.2693Z" fill="#229570"></path>
    <path d="M9.23857 28.1071L4.51782 32.9382L9.23857 37.659L13.9559 32.9382L9.23857 28.1071Z" fill="#80C49F"></path>
    <path d="M13.9558 42.3797L9.23852 37.6589L4.58679 42.3107L9.25922 46.99L13.9558 42.3797Z" fill="#229570"></path>
    <path d="M1.17738 32.8278C0.369883 34.2151 -0.0925293 35.9163 -0.0925293 37.6383L4.51779 32.9382L2.57497 30.9954C2.04009 31.5476 1.56732 32.1584 1.17738 32.8278Z" fill="#80C49F"></path>
    <path d="M9.25928 46.99C10.9812 46.99 12.6825 46.5276 14.0697 45.7201C14.7392 45.3302 15.35 44.8574 15.9021 44.3225L13.9593 42.3797L9.25928 46.99Z" fill="#168563"></path>
    <path d="M9.23853 37.659L4.51779 32.9382L-0.0925293 37.6383L4.5868 42.3107L9.23853 37.659Z" fill="#4BAE83"></path>
    <path d="M9.25924 46.99L4.5868 42.3107L-0.0925293 46.99H9.25924Z" fill="#168563"></path>
    <path d="M-0.0925293 37.6382V42.2693V46.99L4.5868 42.3107L-0.0925293 37.6382Z" fill="#259671"></path>
  </g>
</svg>